<?xml version="1.0" encoding="UTF-8" standalone="no"?>
<svg
   width="500"
   height="500"
   viewBox="0 0 500 500"
   fill="none"
   version="1.1"
   id="svg13660"
   sodipodi:docname="logo-q.svg"
   inkscape:version="1.2.1 (9c6d41e410, 2022-07-14)"
   xmlns:inkscape="http://www.inkscape.org/namespaces/inkscape"
   xmlns:sodipodi="http://sodipodi.sourceforge.net/DTD/sodipodi-0.dtd"
   xmlns="http://www.w3.org/2000/svg"
   xmlns:svg="http://www.w3.org/2000/svg">
  <defs
     id="defs13664" />
  <sodipodi:namedview
     id="namedview13662"
     pagecolor="#ffffff"
     bordercolor="#666666"
     borderopacity="1.0"
     inkscape:showpageshadow="2"
     inkscape:pageopacity="0.0"
     inkscape:pagecheckerboard="0"
     inkscape:deskcolor="#d1d1d1"
     showgrid="false"
     inkscape:zoom="1.230454"
     inkscape:cx="72.73738"
     inkscape:cy="312.07993"
     inkscape:window-width="1920"
     inkscape:window-height="1017"
     inkscape:window-x="1912"
     inkscape:window-y="-8"
     inkscape:window-maximized="1"
     inkscape:current-layer="layer2" />
  <g
     inkscape:groupmode="layer"
     id="layer3"
     inkscape:label="3rd"
     style="display:inline">
    <path
       id="path13640"
       style="display:inline;stroke-width:0.97592;fill:#57bbdd;fill-opacity:1"
       d="M 249.99936 15.515999 C 274.27726 15.515999 293.95834 35.197475 293.95834 59.474984 C 293.95834 83.752486 274.27725 103.43201 249.99936 103.43201 C 225.72145 103.43201 206.04233 83.752486 206.04233 59.474984 C 206.04233 35.197475 225.72146 15.515999 249.99936 15.515999 z M 249.99936 108.69569 A 74.714455 74.714455 0 0 1 300.97006 129.38319 L 300.97006 320.25428 L 175.28451 320.25428 L 175.28451 183.41053 A 74.714455 74.714455 0 0 1 249.99936 108.69569 z M 289.931 333.391 A 30 30 0 0 1 300.97006 335.76014 L 300.97006 441.21717 L 319.931 441.21717 L 319.931 545.72108 L 259.931 545.72108 L 259.931 363.391 A 30 30 0 0 1 289.931 333.391 z M 210.06967 333.391 A 30 30 0 0 1 240.06967 363.391 L 240.06967 545.72108 L 180.06967 545.72108 L 180.06967 363.391 A 30 30 0 0 1 210.06967 333.391 z "
       transform="matrix(-1,0,0,1,648.91928,58.782829)" />
  </g>
  <g
     inkscape:groupmode="layer"
     id="layer2"
     inkscape:label="2nd">
    <path
       id="path13640-4"
       style="stroke-width:0.97592;fill:#57bbdd;fill-opacity:1;stroke:#000000;stroke-opacity:0"
       d="M 250.00083 15.516001 C 274.27873 15.516001 293.95786 35.197477 293.95786 59.474986 C 293.95786 83.752488 274.27872 103.43202 250.00083 103.43202 C 225.72292 103.43202 206.04184 83.752488 206.04184 59.474986 C 206.04184 35.197477 225.72293 15.516001 250.00083 15.516001 z M 250.00083 108.69569 A 74.714455 74.714455 0 0 1 301.14341 129.55506 L 301.14341 320.25428 L 175.28598 320.25428 L 175.28598 183.41053 A 74.714455 74.714455 0 0 1 250.00083 108.69569 z M 289.93052 333.391 A 30 30 0 0 1 301.14341 335.84803 L 301.14341 465.3578 L 319.93052 465.3578 L 319.93052 545.72108 L 259.93052 545.72108 L 259.93052 363.391 A 30 30 0 0 1 289.93052 333.391 z M 210.06919 333.391 A 30 30 0 0 1 240.06919 363.391 L 240.06919 545.72108 L 180.06919 545.72108 L 180.06919 363.391 A 30 30 0 0 1 210.06919 333.391 z "
       transform="matrix(-1,0,0,1,500.35239,34.642202)" />
  </g>
  <g
     inkscape:groupmode="layer"
     id="layer1"
     inkscape:label="1st"
     style="display:inline">
    <path
       id="path13640-9"
       style="display:inline;stroke-width:0.97592;fill:#57bbdd;fill-opacity:1"
       d="M 250.00035 15.51691 C 274.27829 15.51691 293.95738 35.196409 293.95738 59.473942 C 293.95738 83.751469 274.27828 103.43293 250.00035 103.43293 C 225.72243 103.43293 206.04137 83.751469 206.04137 59.473942 C 206.04137 35.196409 225.72244 15.51691 250.00035 15.51691 z M 250.00035 108.69464 A 74.714455 74.714455 0 0 1 324.7152 183.40949 L 324.7152 320.25324 L 175.28551 320.25324 L 175.28551 183.40949 A 74.714455 74.714455 0 0 1 250.00035 108.69464 z M 289.93004 333.38996 A 30 30 0 0 1 319.93004 363.38996 L 319.93004 545.72004 L 259.93004 545.72004 L 259.93004 363.38996 A 30 30 0 0 1 289.93004 333.38996 z M 210.06871 333.38996 A 30 30 0 0 1 240.06871 363.38996 L 240.06871 545.72004 L 180.06871 545.72004 L 180.06871 363.38996 A 30 30 0 0 1 210.06871 333.38996 z "
       transform="matrix(-1,0,0,1,351.78551,10.705746)" />
  </g>
</svg>
