<?xml version="1.0" encoding="UTF-8" standalone="no"?>
<svg
   version="1.1"
   width="32"
   height="32"
   viewBox="0 0 32 32"
   id="svg406"
   sodipodi:docname="clock.svg"
   inkscape:version="1.2.1 (9c6d41e410, 2022-07-14)"
   xmlns:inkscape="http://www.inkscape.org/namespaces/inkscape"
   xmlns:sodipodi="http://sodipodi.sourceforge.net/DTD/sodipodi-0.dtd"
   xmlns="http://www.w3.org/2000/svg"
   xmlns:svg="http://www.w3.org/2000/svg"
   xmlns:rdf="http://www.w3.org/1999/02/22-rdf-syntax-ns#"
   xmlns:cc="http://creativecommons.org/ns#"
   xmlns:dc="http://purl.org/dc/elements/1.1/">
  <defs
     id="defs410" />
  <sodipodi:namedview
     id="namedview408"
     pagecolor="#ffffff"
     bordercolor="#666666"
     borderopacity="1.0"
     inkscape:showpageshadow="2"
     inkscape:pageopacity="0.0"
     inkscape:pagecheckerboard="0"
     inkscape:deskcolor="#d1d1d1"
     showgrid="false"
     inkscape:zoom="25.4375"
     inkscape:cx="13.739558"
     inkscape:cy="15.882064"
     inkscape:window-width="1920"
     inkscape:window-height="1017"
     inkscape:window-x="1912"
     inkscape:window-y="-8"
     inkscape:window-maximized="1"
     inkscape:current-layer="svg406" />
  <title
     id="title402">search</title>
  <metadata
     id="metadata516">
    <rdf:RDF>
      <cc:Work
         rdf:about="">
        <dc:title>search</dc:title>
      </cc:Work>
    </rdf:RDF>
  </metadata>
  <path
     id="path11767"
     style="fill:#000000;stroke-width:2.438;stroke-dasharray:none"
     d="M 11.283996 -10.227777 A 14.995528 15.00447 90 0 0 7.6201192 -0.40831266 A 14.995528 15.00447 90 0 0 22.624047 14.586852 A 14.995528 15.00447 90 0 0 37.627323 -0.40861726 A 14.995528 15.00447 90 0 0 22.623395 -15.403782 A 14.995528 15.00447 90 0 0 11.283996 -10.227777 z M 13.986468 -8.7391893 A 12.000129 11.999871 44.999233 0 1 30.954259 -9.0455381 A 12.000129 11.999871 44.999233 0 1 31.260974 7.9222594 A 12.000129 11.999871 44.999233 0 1 14.293183 8.2286081 A 12.000129 11.999871 44.999233 0 1 13.986468 -8.7391893 z "
     transform="matrix(0.69422703,0.71975609,-0.71977106,0.69421151,0,0)" />
  <path
     id="rect13444"
     style="display:inline;fill:#000000;stroke-width:2.376;stroke-dasharray:none"
     d="m 21.946263,8.1717804 -6.837668,6.8376676 -0.05525,0.05525 0.0042,0.0042 a 1.5,1.5 0 0 0 0.05107,2.061902 1.5,1.5 0 0 0 2.061935,0.0511 l 0.0041,0.0041 0.05524,-0.05524 6.837667,-6.837667 z"
     inkscape:transform-center-y="-3.3697532"
     inkscape:transform-center-x="-3.3697817" />
  <path
     id="rect13444-9"
     style="fill:#000000;stroke-width:2.376;stroke-dasharray:none"
     d="m 11.137797,16.254146 4.476839,1.199565 0.07547,0.02022 0.0015,-0.0057 a 1.5,1.5 0 0 0 1.760122,-1.075183 1.5,1.5 0 0 0 -0.986714,-1.811236 l 0.0015,-0.0057 -0.07547,-0.02022 -4.47684,-1.199565 z"
     inkscape:transform-center-x="1.6847393"
     inkscape:transform-center-y="-0.57182409" />
</svg>
