<svg viewBox="0.085 0.521 459.895 499.541">
  <path d="M 229.041 0.521 C 204.323 0.521 184.181 20.661 184.181 45.381 C 184.181 70.08 204.124 90.22 229.041 90.22 C 253.563 90.22 273.881 70.08 273.881 45.381 C 273.881 20.661 253.761 0.521 229.041 0.521 Z M 285.537 99.637 L 172.545 99.637 C 141.641 99.637 117.041 126.218 117.041 157.124 L 117.041 220.557 L 156.687 220.557 L 156.687 167.035 C 156.687 163.644 159.245 161.088 162.634 161.088 C 166.025 161.088 168.581 163.644 168.581 167.035 L 168.581 220.557 L 289.503 220.557 L 289.503 167.035 C 289.503 163.644 292.059 161.088 295.448 161.088 C 298.839 161.088 301.395 163.644 301.395 167.035 L 301.395 220.557 L 341.042 220.557 L 341.042 157.124 C 341.042 126.417 316.242 99.637 285.537 99.637 Z M 0.085 230.468 L 0.085 283.99 L 45.679 283.99 L 45.679 500.062 L 412.405 500.062 L 412.405 283.99 L 459.98 283.99 L 459.98 230.468 L 0.085 230.468 Z" />
</svg>