<svg viewBox="0 0 60 60">
  <path d="M 49.862 0.135 L 8.102 0.135 C 3.742 0.096 0.168 3.585 0.102 7.945 L 0.102 52.325 C 0.151 56.637 3.649 60.113 7.962 60.135 L 49.862 60.135 C 54.163 60.097 57.643 56.626 57.692 52.325 L 57.692 7.945 C 57.737 3.605 54.202 0.079 49.862 0.135 Z M 10.712 13.135 C 10.764 11.717 11.904 10.581 13.322 10.535 L 26.642 10.535 C 28.06 10.581 29.2 11.717 29.252 13.135 L 29.252 15.735 C 29.2 17.153 28.06 18.289 26.642 18.335 L 13.322 18.335 C 11.904 18.289 10.764 17.153 10.712 15.735 L 10.712 13.135 Z M 46.912 47.135 C 46.86 48.553 45.72 49.689 44.302 49.735 L 31.082 49.735 C 29.664 49.689 28.524 48.553 28.472 47.135 L 28.472 44.535 C 28.524 43.117 29.664 41.981 31.082 41.935 L 44.402 41.935 C 45.799 41.973 46.912 43.117 46.912 44.515 L 46.912 47.135 Z M 47.422 34.745 C 47.305 36.187 46.119 37.309 44.672 37.345 L 13.322 37.345 C 11.904 37.299 10.764 36.163 10.712 34.745 L 10.712 25.675 C 10.764 24.257 11.904 23.121 13.322 23.075 L 44.772 23.075 C 46.19 23.121 47.33 24.257 47.382 25.675 L 47.422 34.745 Z" />
</svg>

